# xmcd
#
# Track frame offsets:
#	150
#	23232
#	41523
#	63639
#	81111
#	97139
#	118705
#	125111
#	149174
#	178181
#	200316
#	217282
#
# Disc length: 3179 seconds
#
# Revision: 0
# Processed by: cddbd v1.5.2PL0 Copyright (c) Steve Scherf et al.
# Submitted via: dBpowerAMP V4.0
#
DISCID=c30c690c
DTITLE=Engin Nurþani Remi Night Music - Sen Nefesine Köle Oldun
DYEAR=2006
DGENRE=Country
TTITLE0=aldým elime kalemi
TTITLE1=resmini yýrttýrma bana
TTITLE2=güzel benim güzelimdir
TTITLE3=sen nefsine köle oldun
TTITLE4=benim bana sessizliðim
TTITLE5=hiç
TTITLE6=halkým beni yüceltti
TTITLE7=gizli gizli
TTITLE8=anmam diyorum
TTITLE9=sende gidersen
TTITLE10=gülseren
TTITLE11=ölüyorum senin olsun
EXTD=engin nurþani 2006 sen nefsine köle oldun
EXTT0=
EXTT1=
EXTT2=
EXTT3=
EXTT4=
EXTT5=
EXTT6=
EXTT7=
EXTT8=
EXTT9=
EXTT10=
EXTT11=
PLAYORDER=
